<svg id="svg" version="1.1" width="2000" height="2000" xmlns="http://www.w3.org/2000/svg" xmlns:xlink="http://www.w3.org/1999/xlink" style="display: block;"><g id="svgg"><path id="path0" d="" stroke="none" fill="#000000" fill-rule="evenodd"></path><path id="path1" d="M21.850 0.132 C 21.713 0.188,21.600 0.361,21.600 0.517 C 21.600 0.672,21.504 0.800,21.386 0.800 C 21.109 0.800,20.600 1.309,20.600 1.586 C 20.600 1.704,20.480 1.800,20.334 1.800 C 20.187 1.800,19.947 2.025,19.800 2.300 C 19.653 2.575,19.413 2.800,19.266 2.800 C 19.120 2.800,19.000 2.920,19.000 3.066 C 19.000 3.213,18.775 3.453,18.500 3.600 C 18.225 3.747,18.000 3.987,18.000 4.134 C 18.000 4.280,17.904 4.400,17.786 4.400 C 17.509 4.400,17.000 4.909,17.000 5.186 C 17.000 5.304,16.904 5.400,16.786 5.400 C 16.509 5.400,16.000 5.909,16.000 6.186 C 16.000 6.304,15.904 6.400,15.786 6.400 C 15.509 6.400,15.000 6.909,15.000 7.186 C 15.000 7.304,14.904 7.400,14.786 7.400 C 14.509 7.400,14.000 7.909,14.000 8.186 C 14.000 8.304,13.904 8.400,13.786 8.400 C 13.509 8.400,13.000 8.909,13.000 9.186 C 13.000 9.304,12.880 9.400,12.734 9.400 C 12.587 9.400,12.347 9.625,12.200 9.900 C 12.053 10.175,11.865 10.400,11.782 10.400 C 11.585 10.400,10.400 11.585,10.400 11.782 C 10.400 11.865,10.175 12.053,9.900 12.200 C 9.625 12.347,9.400 12.587,9.400 12.734 C 9.400 12.880,9.304 13.000,9.186 13.000 C 9.068 13.000,8.843 13.129,8.686 13.286 C 8.529 13.443,8.400 13.668,8.400 13.786 C 8.400 13.904,8.304 14.000,8.186 14.000 C 7.909 14.000,7.400 14.509,7.400 14.786 C 7.400 14.904,7.304 15.000,7.186 15.000 C 6.909 15.000,6.400 15.509,6.400 15.786 C 6.400 15.904,6.304 16.000,6.186 16.000 C 5.909 16.000,5.400 16.509,5.400 16.786 C 5.400 16.904,5.304 17.000,5.186 17.000 C 4.909 17.000,4.400 17.509,4.400 17.786 C 4.400 17.904,4.280 18.000,4.134 18.000 C 3.987 18.000,3.747 18.225,3.600 18.500 C 3.453 18.775,3.213 19.000,3.066 19.000 C 2.920 19.000,2.800 19.120,2.800 19.266 C 2.800 19.413,2.575 19.653,2.300 19.800 C 2.025 19.947,1.800 20.187,1.800 20.334 C 1.800 20.480,1.704 20.600,1.586 20.600 C 1.309 20.600,0.800 21.109,0.800 21.386 C 0.800 21.504,0.675 21.600,0.521 21.600 C 0.160 21.600,0.000 22.040,-0.000 23.032 C -0.000 23.830,0.147 23.979,88.218 112.023 C 160.710 184.493,176.395 200.265,176.200 200.500 C 176.070 200.656,172.710 204.033,168.732 208.003 C 66.380 310.162,0.200 376.546,0.200 377.056 C 0.200 377.531,1.920 379.337,11.394 388.809 L 22.589 400.000 23.444 399.995 L 24.300 399.989 112.292 311.987 L 200.284 223.984 288.192 311.892 C 369.200 392.900,376.151 399.800,376.750 399.800 C 377.194 399.800,377.400 399.705,377.400 399.500 C 377.400 399.335,377.496 399.200,377.614 399.200 C 377.732 399.200,377.957 399.071,378.114 398.914 C 378.271 398.757,378.400 398.532,378.400 398.414 C 378.400 398.296,378.520 398.200,378.666 398.200 C 378.813 398.200,379.053 397.975,379.200 397.700 C 379.347 397.425,379.587 397.200,379.734 397.200 C 379.880 397.200,380.000 397.104,380.000 396.986 C 380.000 396.868,380.129 396.643,380.286 396.486 C 380.443 396.329,380.668 396.200,380.786 396.200 C 380.904 396.200,381.000 396.080,381.000 395.934 C 381.000 395.787,381.225 395.547,381.500 395.400 C 381.775 395.253,382.000 395.013,382.000 394.866 C 382.000 394.720,382.096 394.600,382.214 394.600 C 382.332 394.600,382.557 394.471,382.714 394.314 C 382.871 394.157,383.000 393.932,383.000 393.814 C 383.000 393.696,383.096 393.600,383.214 393.600 C 383.332 393.600,383.557 393.471,383.714 393.314 C 383.871 393.157,384.000 392.932,384.000 392.814 C 384.000 392.696,384.096 392.600,384.214 392.600 C 384.332 392.600,384.557 392.471,384.714 392.314 C 384.871 392.157,385.000 391.932,385.000 391.814 C 385.000 391.696,385.096 391.600,385.214 391.600 C 385.332 391.600,385.557 391.471,385.714 391.314 C 385.871 391.157,386.000 390.932,386.000 390.814 C 386.000 390.696,386.120 390.600,386.266 390.600 C 386.413 390.600,386.653 390.375,386.800 390.100 C 386.947 389.825,387.172 389.600,387.300 389.600 C 387.428 389.600,387.653 389.375,387.800 389.100 C 387.947 388.825,388.187 388.600,388.334 388.600 C 388.480 388.600,388.600 388.480,388.600 388.334 C 388.600 388.187,388.825 387.947,389.100 387.800 C 389.375 387.653,389.600 387.428,389.600 387.300 C 389.600 387.172,389.825 386.947,390.100 386.800 C 390.375 386.653,390.600 386.413,390.600 386.266 C 390.600 386.120,390.696 386.000,390.814 386.000 C 390.932 386.000,391.157 385.871,391.314 385.714 C 391.471 385.557,391.600 385.332,391.600 385.214 C 391.600 385.096,391.696 385.000,391.814 385.000 C 391.932 385.000,392.157 384.871,392.314 384.714 C 392.471 384.557,392.600 384.332,392.600 384.214 C 392.600 384.096,392.696 384.000,392.814 384.000 C 392.932 384.000,393.157 383.871,393.314 383.714 C 393.471 383.557,393.600 383.332,393.600 383.214 C 393.600 383.096,393.696 383.000,393.814 383.000 C 393.932 383.000,394.157 382.871,394.314 382.714 C 394.471 382.557,394.600 382.332,394.600 382.214 C 394.600 382.096,394.720 382.000,394.866 382.000 C 395.013 382.000,395.253 381.775,395.400 381.500 C 395.547 381.225,395.787 381.000,395.934 381.000 C 396.080 381.000,396.200 380.904,396.200 380.786 C 396.200 380.668,396.329 380.443,396.486 380.286 C 396.643 380.129,396.868 380.000,396.986 380.000 C 397.104 380.000,397.200 379.880,397.200 379.734 C 397.200 379.587,397.425 379.347,397.700 379.200 C 397.975 379.053,398.200 378.813,398.200 378.666 C 398.200 378.520,398.296 378.400,398.414 378.400 C 398.532 378.400,398.757 378.271,398.914 378.114 C 399.071 377.957,399.200 377.732,399.200 377.614 C 399.200 377.496,399.335 377.400,399.500 377.400 C 399.710 377.400,399.800 377.188,399.800 376.693 C 399.800 376.018,395.824 372.010,311.929 288.115 L 224.058 200.244 312.029 112.273 L 400.000 24.302 400.000 23.446 L 400.000 22.589 388.809 11.394 C 379.599 2.182,377.523 0.200,377.082 0.200 C 376.637 0.200,361.856 14.892,288.448 88.300 C 239.993 136.755,200.292 176.400,200.224 176.400 C 200.155 176.400,160.410 136.710,111.900 88.200 L 23.701 -0.000 22.901 0.016 C 22.460 0.024,21.988 0.077,21.850 0.132 " stroke="none" fill="#ba7559" fill-rule="evenodd"></path><path id="path2" d="" stroke="none" fill="#ff0000" fill-rule="evenodd"></path><path id="path3" d="" stroke="none" fill="#7f7f00" fill-rule="evenodd"></path><path id="path4" d="" stroke="none" fill="#ffff00" fill-rule="evenodd"></path></g></svg>